<svg xmlns="http://www.w3.org/2000/svg" viewBox="0 0 106.93 116.56"><defs>
  <style>.cls-1{fill:#fff;}.cls-2{fill:#333;}</style>
</defs><title>Asset 2</title><g id="Layer_2" data-name="Layer 2">
<g id="Layer_1-2" data-name="Layer 1"><rect class="cls-1" x="2.95" y="3.28" width="100" height="110" rx="10.55" ry="10.55"/>
<path class="cls-2" d="M39.12,11.69h0A3.84,3.84,0,1,0,43,15.53h0A3.83,3.83,0,0,0,39.12,11.69Z"/>
<path class="cls-2" d="M15.21,11.69h0A3.84,3.84,0,1,0,19,15.53h0A3.83,3.83,0,0,0,15.21,11.69Z"/>
<path class="cls-2" d="M27.16,11.69h0A3.84,3.84,0,1,0,31,15.53h0A3.83,3.83,0,0,0,27.16,11.69Z"/>
<path class="cls-2" d="M93.06,0H13.87A13.87,13.87,0,0,0,0,13.88v88.8a13.87,13.87,0,0,0,13.87,13.88h79.2a13.87,13.87,0,0,0,13.87-13.88h0V13.88A13.87,13.87,0,0,0,93.06,0ZM4.75,14h0a9.1,9.1,0,0,1,9-9.24H92.87a9.29,9.29,0,0,1,9.3,9.24V25H4.75Zm0,15.73H51.09V45.59h2.68a8.75,8.75,0,0,1-.3,17.5s0-.05-.11-.05h-.25A44.27,44.27,0,0,0,21.67,76.2a11.75,11.75,0,0,1-8.36,3.48A11.54,11.54,0,0,1,5,76.22l-.28.38Zm97.42,72.88a9.58,9.58,0,0,1-9.3,9.58h-79c-5.11,0-9.08-4.47-9.08-9.58V81.81a15.51,15.51,0,0,0,8.64,2.51A16.19,16.19,0,0,0,25,79.54,39.55,39.55,0,0,1,53.13,67.79h.23A39.85,39.85,0,0,1,81.77,79.52a16.38,16.38,0,0,0,11.65,4.81,16.9,16.9,0,0,0,8.76-2.52Zm0-26-.4-.37a11.84,11.84,0,0,1-16.74,0A44.42,44.42,0,0,0,62.9,64.12a13.33,13.33,0,0,0,4.19-9.86A13.56,13.56,0,0,0,55.84,41V29.73h46.33Z"/>
<ellipse class="cls-2" cx="23.03" cy="51.43" rx="5.64" ry="7.52"/>
<ellipse class="cls-2" cx="83.67" cy="51.43" rx="5.64" ry="7.52"/>
<path class="cls-2" d="M62.54,85a12.1,12.1,0,0,1-3.86,2.6,12.23,12.23,0,0,1-9.45,0A12.09,12.09,0,0,1,45.37,85a2,2,0,1,0-2.83,2.83,16.13,16.13,0,0,0,22.83,0A2,2,0,0,0,62.54,85Z"/>
</g>
</g>
</svg>
